<?xml version="1.0" standalone="no"?>
<!DOCTYPE svg PUBLIC "-//W3C//DTD SVG 20010904//EN"
 "http://www.w3.org/TR/2001/REC-SVG-20010904/DTD/svg10.dtd">
<svg version="1.0" xmlns="http://www.w3.org/2000/svg"
 width="1000.000000pt" height="1000.000000pt" viewBox="0 0 1000.000000 1000.000000"
 preserveAspectRatio="xMidYMid meet">
<metadata>
Created by potrace 1.14, written by Peter Selinger 2001-2017
</metadata>
<g transform="translate(0.000000,1000.000000) scale(0.100000,-0.100000)"
fill="#000000" stroke="none">
<path d="M2920 7005 l0 -625 70 0 70 0 0 313 0 314 30 41 c16 23 49 54 72 69
36 25 51 28 119 28 87 0 118 -15 154 -76 19 -32 20 -55 23 -361 l3 -328 75 0
76 0 -4 343 c-5 380 -7 398 -73 475 -41 47 -95 71 -180 79 -98 9 -189 -24
-267 -95 l-28 -26 0 237 0 237 -70 0 -70 0 0 -625z"/>
<path d="M300 6975 l0 -595 75 0 75 0 0 456 c0 250 4 453 9 450 4 -3 140 -208
301 -456 l294 -450 78 0 78 0 0 595 0 595 -75 0 -75 0 0 -455 c0 -250 -3 -455
-7 -455 -5 0 -141 205 -303 455 l-295 455 -77 0 -78 0 0 -595z"/>
<path d="M2430 7365 l0 -105 -80 0 -80 0 0 -65 0 -65 80 0 80 0 0 -297 c0
-179 4 -313 11 -336 15 -56 70 -112 124 -127 43 -12 153 -8 176 6 5 3 9 31 9
63 l0 57 -59 -4 c-54 -4 -62 -2 -85 21 l-26 26 0 296 0 295 80 0 80 0 0 65 0
65 -80 0 -80 0 0 105 0 105 -75 0 -75 0 0 -105z"/>
<path d="M1705 7266 c-100 -25 -172 -75 -215 -149 -16 -29 -30 -62 -30 -74 0
-22 4 -23 73 -23 l72 0 16 38 c33 79 178 117 275 73 55 -25 83 -73 91 -154 l6
-64 -144 -6 c-89 -3 -164 -11 -196 -21 -74 -23 -143 -73 -178 -130 -27 -44
-30 -57 -30 -131 0 -73 3 -86 30 -131 57 -93 173 -143 298 -130 64 6 154 46
189 83 l23 25 10 -44 11 -43 83 -3 c77 -3 83 -1 76 15 -23 58 -27 104 -31 363
-3 157 -10 304 -16 328 -13 50 -76 125 -127 151 -77 40 -192 50 -286 27z m285
-553 c0 -102 -13 -129 -81 -175 -107 -72 -246 -61 -300 25 -28 45 -22 127 12
163 51 55 110 72 262 73 l107 1 0 -87z"/>
<path d="M4075 7266 c-100 -25 -172 -75 -215 -149 -16 -29 -30 -62 -30 -74 0
-22 4 -23 73 -23 l72 0 16 38 c33 79 178 117 275 73 55 -25 83 -73 91 -154 l6
-64 -144 -6 c-89 -3 -164 -11 -196 -21 -74 -23 -143 -73 -178 -130 -27 -44
-30 -57 -30 -131 0 -73 3 -86 30 -131 57 -93 173 -143 298 -130 64 6 154 46
189 83 l23 25 10 -44 11 -43 83 -3 c77 -3 83 -1 76 15 -23 58 -27 104 -31 363
-3 157 -10 304 -16 328 -13 50 -76 125 -127 151 -77 40 -192 50 -286 27z m285
-553 c0 -102 -13 -129 -81 -175 -107 -72 -246 -61 -300 25 -28 45 -22 127 12
163 51 55 110 72 262 73 l107 1 0 -87z"/>
<path d="M5055 7264 c-52 -17 -92 -40 -137 -82 l-28 -26 0 52 0 52 -70 0 -70
0 0 -440 0 -440 70 0 70 0 0 313 0 314 30 41 c16 23 49 54 72 69 36 25 51 28
119 28 87 0 118 -15 154 -76 19 -32 20 -55 23 -361 l3 -328 75 0 76 0 -4 343
c-4 294 -7 349 -22 388 -23 64 -77 123 -128 144 -61 24 -172 29 -233 9z"/>
<path d="M7105 5610 c-59 -24 -92 -114 -63 -170 32 -61 116 -86 182 -55 87 42
89 178 2 219 -36 17 -88 20 -121 6z"/>
<path d="M603 5565 c-171 -37 -296 -167 -350 -366 -25 -91 -25 -376 1 -468 35
-127 103 -231 192 -292 174 -119 469 -98 622 45 70 66 105 135 126 254 l6 32
-125 0 c-123 0 -125 0 -125 -22 0 -81 -62 -167 -135 -187 -60 -17 -144 -13
-191 8 -55 25 -90 64 -116 131 -21 50 -22 72 -23 260 0 173 3 214 19 262 36
109 110 167 216 168 72 0 122 -15 160 -46 39 -34 52 -57 65 -124 l12 -55 121
-3 c67 -1 122 1 122 5 -1 35 -36 147 -62 195 -89 168 -311 252 -535 203z"/>
<path d="M4120 5370 l0 -110 -65 0 -65 0 0 -85 0 -85 64 0 65 0 3 -288 3 -289
30 -48 c45 -73 104 -100 215 -100 47 0 97 4 113 8 27 7 27 8 27 92 l0 85 -54
0 c-38 0 -61 6 -77 19 -24 19 -24 20 -27 270 l-3 251 76 0 75 0 0 85 0 85 -75
0 -75 0 0 110 0 110 -115 0 -115 0 0 -110z"/>
<path d="M6520 5370 l0 -110 -65 0 -65 0 0 -85 0 -85 64 0 65 0 3 -288 3 -289
30 -48 c45 -73 104 -100 215 -100 47 0 97 4 113 8 27 7 27 8 27 92 l0 85 -54
0 c-38 0 -61 6 -77 19 -24 19 -24 20 -27 270 l-3 251 76 0 75 0 0 85 0 85 -75
0 -75 0 0 110 0 110 -115 0 -115 0 0 -110z"/>
<path d="M1623 5270 c-68 -14 -128 -45 -178 -91 -95 -88 -135 -194 -135 -357
0 -171 38 -272 134 -360 155 -141 424 -134 572 14 112 111 154 335 99 521 -34
114 -134 219 -245 258 -54 19 -189 28 -247 15z m177 -199 c19 -10 48 -40 65
-66 29 -48 30 -51 30 -184 0 -121 -2 -140 -22 -178 -31 -57 -75 -86 -138 -91
-132 -11 -201 92 -193 287 4 120 35 194 95 229 47 27 116 29 163 3z"/>
<path d="M2665 5266 c-55 -17 -80 -32 -126 -73 l-39 -35 0 51 0 51 -110 0
-110 0 0 -440 0 -440 115 0 115 0 0 314 c0 297 1 315 20 338 42 54 147 75 210
43 58 -30 60 -44 60 -385 l0 -310 120 0 120 0 0 288 c0 158 -5 318 -10 357
-14 96 -49 167 -100 204 -66 48 -180 64 -265 37z"/>
<path d="M3475 5273 c-116 -25 -197 -77 -239 -152 -38 -71 -39 -163 -1 -226
44 -76 120 -118 290 -161 153 -39 194 -74 165 -143 -21 -51 -98 -73 -189 -55
-42 9 -90 54 -97 93 l-6 31 -111 0 -110 0 5 -45 c11 -91 94 -181 212 -228 76
-31 258 -30 339 2 127 50 191 132 191 245 -1 140 -89 218 -303 267 -151 34
-191 59 -191 119 1 53 52 90 127 90 62 0 107 -27 124 -74 l13 -36 113 0 c109
0 113 1 113 21 0 72 -57 159 -135 204 -70 41 -228 66 -310 48z"/>
<path d="M4877 5264 c-67 -16 -108 -35 -159 -76 -41 -32 -88 -117 -88 -160 l0
-28 115 0 c108 0 115 1 115 20 0 11 13 34 28 51 23 26 38 33 80 37 31 2 64 -1
82 -8 40 -16 70 -75 70 -135 l0 -45 -82 0 c-175 0 -300 -40 -367 -116 -93
-106 -79 -288 29 -374 109 -86 267 -92 380 -14 l49 33 11 -34 12 -35 119 0
c65 0 119 2 119 4 0 2 -7 23 -16 47 -14 36 -18 101 -23 339 -7 325 -10 342
-74 408 -84 88 -248 123 -400 86z m243 -557 c0 -51 -5 -79 -16 -96 -37 -52
-153 -77 -213 -46 -58 29 -65 118 -14 169 34 34 71 44 166 45 l77 1 0 -73z"/>
<path d="M5915 5266 c-55 -17 -80 -32 -126 -73 l-39 -35 0 51 0 51 -110 0
-110 0 0 -440 0 -440 115 0 115 0 0 314 c0 297 1 315 20 338 42 54 147 75 210
43 58 -30 60 -44 60 -385 l0 -310 120 0 120 0 0 288 c0 158 -5 318 -10 357
-14 96 -49 167 -100 204 -66 48 -180 64 -265 37z"/>
<path d="M7855 5266 c-55 -17 -80 -32 -126 -73 l-39 -35 0 51 0 51 -110 0
-110 0 0 -440 0 -440 115 0 115 0 0 314 c0 297 1 315 20 338 42 54 147 75 210
43 58 -30 60 -44 60 -385 l0 -310 120 0 120 0 0 288 c0 158 -5 318 -10 357
-14 96 -49 167 -100 204 -66 48 -180 64 -265 37z"/>
<path d="M8672 5265 c-138 -39 -224 -121 -272 -260 -27 -77 -37 -223 -21 -306
36 -181 170 -305 357 -332 140 -20 293 25 378 111 l38 40 -53 60 c-30 33 -57
61 -61 61 -4 1 -21 -12 -40 -29 -70 -64 -214 -79 -293 -30 -42 26 -82 82 -91
128 l-6 32 281 0 281 0 0 73 c0 221 -74 364 -222 432 -72 33 -197 42 -276 20z
m184 -191 c42 -20 72 -68 80 -128 l7 -46 -167 0 -168 0 7 33 c11 51 47 109 84
134 41 28 107 30 157 7z"/>
<path d="M7040 4820 l0 -440 120 0 120 0 0 440 0 440 -120 0 -120 0 0 -440z"/>
<path d="M9300 4885 l0 -95 230 0 230 0 0 95 0 95 -230 0 -230 0 0 -95z"/>
<path d="M3230 3005 l0 -625 120 0 120 0 0 138 0 138 41 39 c33 33 42 37 49
25 5 -8 55 -87 112 -175 l104 -160 132 -3 c73 -1 132 0 132 4 0 3 -74 115
-165 249 -90 133 -165 247 -167 252 -2 6 68 92 155 192 l157 181 -142 -1 -143
0 -130 -154 -130 -154 -3 339 -2 340 -120 0 -120 0 0 -625z"/>
<path d="M603 3565 c-171 -37 -296 -167 -350 -366 -25 -91 -25 -376 1 -468 35
-127 103 -231 192 -292 174 -119 469 -98 622 45 70 66 105 135 126 254 l6 32
-125 0 c-123 0 -125 0 -125 -22 0 -81 -62 -167 -135 -187 -60 -17 -144 -13
-191 8 -55 25 -90 64 -116 131 -21 50 -22 72 -23 260 0 173 3 214 19 262 36
109 110 167 216 168 72 0 122 -15 160 -46 39 -34 52 -57 65 -124 l12 -55 121
-3 c67 -1 122 1 122 5 -1 35 -36 147 -62 195 -89 168 -311 252 -535 203z"/>
<path d="M1623 3270 c-68 -14 -128 -45 -178 -91 -95 -88 -135 -194 -135 -357
0 -171 38 -272 134 -360 155 -141 424 -134 572 14 112 111 154 335 99 521 -34
114 -134 219 -245 258 -54 19 -189 28 -247 15z m177 -199 c19 -10 48 -40 65
-66 29 -48 30 -51 30 -184 0 -121 -2 -140 -22 -178 -31 -57 -75 -86 -138 -91
-132 -11 -201 92 -193 287 4 120 35 194 95 229 47 27 116 29 163 3z"/>
<path d="M2563 3270 c-68 -14 -128 -45 -178 -91 -95 -88 -135 -194 -135 -357
0 -171 38 -272 134 -360 155 -141 424 -134 572 14 112 111 154 335 99 521 -34
114 -134 219 -245 258 -54 19 -189 28 -247 15z m177 -199 c19 -10 48 -40 65
-66 29 -48 30 -51 30 -184 0 -121 -2 -140 -22 -178 -31 -57 -75 -86 -138 -91
-132 -11 -201 92 -193 287 4 120 35 194 95 229 47 27 116 29 163 3z"/>
<path d="M4372 3265 c-138 -39 -224 -121 -272 -260 -27 -77 -37 -223 -21 -306
36 -181 170 -305 357 -332 140 -20 293 25 378 111 l38 40 -53 60 c-30 33 -57
61 -61 61 -4 1 -21 -12 -40 -29 -70 -64 -214 -79 -293 -30 -42 26 -82 82 -91
128 l-6 32 281 0 281 0 0 73 c0 221 -74 364 -222 432 -72 33 -197 42 -276 20z
m184 -191 c42 -20 72 -68 80 -128 l7 -46 -167 0 -168 0 7 33 c11 51 47 109 84
134 41 28 107 30 157 7z"/>
</g>
</svg>
